<svg width="395" height="283" viewBox="0 0 395 283" fill="none" xmlns="http://www.w3.org/2000/svg">
<g clip-path="url(#clip0_909_43430)">
<g opacity="0.5">
<path opacity="0.5" d="M182.818 255.811L176.226 251.994L167.222 253.389L164.807 258.602L171.399 262.414L180.407 261.019L182.818 255.811Z" stroke="#F4F3EC" stroke-width="0.5" stroke-miterlimit="10"/>
<path opacity="0.5" d="M194.237 249.203L187.645 245.386L178.637 246.782L176.226 251.994L182.818 255.811L191.822 254.411L194.237 249.203Z" stroke="#F4F3EC" stroke-width="0.5" stroke-miterlimit="10"/>
<path opacity="0.5" d="M205.653 242.595L199.06 238.778L190.057 240.174L187.646 245.386L194.238 249.203L203.242 247.803L205.653 242.595Z" stroke="#F4F3EC" stroke-width="0.5" stroke-miterlimit="10"/>
<path opacity="0.5" d="M217.071 235.987L210.479 232.17L201.475 233.566L199.06 238.778L205.652 242.595L214.656 241.199L217.071 235.987Z" stroke="#F4F3EC" stroke-width="0.5" stroke-miterlimit="10"/>
<path opacity="0.5" d="M214.01 260.645L207.418 256.832L198.414 258.228L196.003 263.44L202.595 267.253L211.599 265.857L214.01 260.645Z" stroke="#F4F3EC" stroke-width="0.5" stroke-miterlimit="10"/>
<path opacity="0.5" d="M202.596 267.253L196.003 263.44L187 264.836L184.584 270.048L191.176 273.861L200.18 272.465L202.596 267.253Z" stroke="#F4F3EC" stroke-width="0.5" stroke-miterlimit="10"/>
<path opacity="0.5" d="M225.43 254.037L218.837 250.224L209.834 251.62L207.418 256.832L214.01 260.645L223.018 259.249L225.43 254.037Z" stroke="#F4F3EC" stroke-width="0.5" stroke-miterlimit="10"/>
<path opacity="0.5" d="M236.844 247.429L230.252 243.616L221.248 245.012L218.837 250.224L225.429 254.037L234.433 252.641L236.844 247.429Z" stroke="#F4F3EC" stroke-width="0.5" stroke-miterlimit="10"/>
<path opacity="0.5" d="M233.788 272.091L227.196 268.274L218.192 269.669L215.776 274.882L222.369 278.699L231.372 277.303L233.788 272.091Z" stroke="#F4F3EC" stroke-width="0.5" stroke-miterlimit="10"/>
<path opacity="0.5" d="M245.203 265.483L238.615 261.666L229.607 263.066L227.195 268.274L233.788 272.091L242.791 270.695L245.203 265.483Z" stroke="#F4F3EC" stroke-width="0.5" stroke-miterlimit="10"/>
<path opacity="0.5" d="M256.622 258.875L250.029 255.058L241.025 256.458L238.614 261.666L245.202 265.483L254.21 264.087L256.622 258.875Z" stroke="#F4F3EC" stroke-width="0.5" stroke-miterlimit="10"/>
<path opacity="0.5" d="M154.683 226.311L148.091 222.498L139.087 223.894L136.676 229.106L143.268 232.919L152.272 231.523L154.683 226.311Z" stroke="#F4F3EC" stroke-width="0.5" stroke-miterlimit="10"/>
<path opacity="0.5" d="M166.103 219.703L159.51 215.89L150.506 217.286L148.091 222.498L154.683 226.311L163.687 224.915L166.103 219.703Z" stroke="#F4F3EC" stroke-width="0.5" stroke-miterlimit="10"/>
<path opacity="0.5" d="M177.517 213.099L170.925 209.282L161.921 210.678L159.51 215.89L166.102 219.703L175.106 218.307L177.517 213.099Z" stroke="#F4F3EC" stroke-width="0.5" stroke-miterlimit="10"/>
<path opacity="0.5" d="M248.264 240.825L241.671 237.008L232.668 238.404L230.252 243.616L236.844 247.429L245.852 246.033L248.264 240.825Z" stroke="#F4F3EC" stroke-width="0.5" stroke-miterlimit="10"/>
<path opacity="0.5" d="M163.041 244.365L156.448 240.548L147.444 241.948L145.033 247.156L151.626 250.973L160.629 249.577L163.041 244.365Z" stroke="#F4F3EC" stroke-width="0.5" stroke-miterlimit="10"/>
<path opacity="0.5" d="M208.714 217.933L202.121 214.12L193.118 215.516L190.702 220.728L197.295 224.541L206.298 223.145L208.714 217.933Z" stroke="#F4F3EC" stroke-width="0.5" stroke-miterlimit="10"/>
<path opacity="0.5" d="M174.46 237.757L167.868 233.944L158.864 235.34L156.448 240.548L163.041 244.365L172.049 242.969L174.46 237.757Z" stroke="#F4F3EC" stroke-width="0.5" stroke-miterlimit="10"/>
<path opacity="0.5" d="M185.88 231.149L179.287 227.336L170.279 228.732L167.868 233.944L174.461 237.757L183.464 236.361L185.88 231.149Z" stroke="#F4F3EC" stroke-width="0.5" stroke-miterlimit="10"/>
<path opacity="0.5" d="M197.294 224.541L190.702 220.728L181.698 222.124L179.287 227.336L185.88 231.149L194.883 229.753L197.294 224.541Z" stroke="#F4F3EC" stroke-width="0.5" stroke-miterlimit="10"/>
<path opacity="0.5" d="M228.487 229.379L221.899 225.562L212.891 226.962L210.479 232.17L217.072 235.987L226.076 234.591L228.487 229.379Z" stroke="#F4F3EC" stroke-width="0.5" stroke-miterlimit="10"/>
<path opacity="0.5" d="M239.906 222.771L233.313 218.954L224.31 220.354L221.898 225.562L228.486 229.379L237.495 227.983L239.906 222.771Z" stroke="#F4F3EC" stroke-width="0.5" stroke-miterlimit="10"/>
<path opacity="0.5" d="M220.128 211.329L213.536 207.512L204.532 208.908L202.121 214.12L208.714 217.933L217.717 216.537L220.128 211.329Z" stroke="#F4F3EC" stroke-width="0.5" stroke-miterlimit="10"/>
<path opacity="0.5" d="M259.684 234.217L253.091 230.4L244.083 231.796L241.672 237.008L248.264 240.825L257.268 239.425L259.684 234.217Z" stroke="#F4F3EC" stroke-width="0.5" stroke-miterlimit="10"/>
<path opacity="0.5" d="M151.626 250.973L145.034 247.156L136.03 248.551L133.614 253.764L140.207 257.581L149.21 256.181L151.626 250.973Z" stroke="#F4F3EC" stroke-width="0.5" stroke-miterlimit="10"/>
<path opacity="0.5" d="M191.176 273.861L184.584 270.048L175.58 271.444L173.169 276.652L179.757 280.469L188.765 279.073L191.176 273.861Z" stroke="#F4F3EC" stroke-width="0.5" stroke-miterlimit="10"/>
<path opacity="0.5" d="M171.399 262.415L164.806 258.602L155.803 259.998L153.392 265.21L159.984 269.022L168.988 267.627L171.399 262.415Z" stroke="#F4F3EC" stroke-width="0.5" stroke-miterlimit="10"/>
<path opacity="0.5" d="M198.415 258.228L191.822 254.411L182.818 255.811L180.407 261.019L187 264.836L196.003 263.44L198.415 258.228Z" stroke="#F4F3EC" stroke-width="0.5" stroke-miterlimit="10"/>
<path opacity="0.5" d="M209.834 251.62L203.242 247.803L194.238 249.203L191.822 254.411L198.415 258.228L207.418 256.832L209.834 251.62Z" stroke="#F4F3EC" stroke-width="0.5" stroke-miterlimit="10"/>
<path opacity="0.5" d="M221.249 245.012L214.656 241.199L205.652 242.595L203.241 247.803L209.834 251.62L218.837 250.224L221.249 245.012Z" stroke="#F4F3EC" stroke-width="0.5" stroke-miterlimit="10"/>
<path opacity="0.5" d="M232.668 238.404L226.076 234.591L217.072 235.987L214.656 241.199L221.249 245.012L230.252 243.616L232.668 238.404Z" stroke="#F4F3EC" stroke-width="0.5" stroke-miterlimit="10"/>
<path opacity="0.5" d="M218.191 269.67L211.599 265.857L202.595 267.253L200.18 272.465L206.772 276.278L215.776 274.882L218.191 269.67Z" stroke="#F4F3EC" stroke-width="0.5" stroke-miterlimit="10"/>
<path opacity="0.5" d="M229.607 263.066L223.019 259.249L214.011 260.645L211.6 265.857L218.192 269.669L227.196 268.274L229.607 263.066Z" stroke="#F4F3EC" stroke-width="0.5" stroke-miterlimit="10"/>
<path opacity="0.5" d="M241.026 256.458L234.433 252.641L225.43 254.037L223.019 259.249L229.607 263.066L238.615 261.666L241.026 256.458Z" stroke="#F4F3EC" stroke-width="0.5" stroke-miterlimit="10"/>
<path opacity="0.5" d="M252.445 249.85L245.853 246.033L236.845 247.429L234.434 252.641L241.026 256.458L250.03 255.058L252.445 249.85Z" stroke="#F4F3EC" stroke-width="0.5" stroke-miterlimit="10"/>
<path opacity="0.5" d="M158.864 235.34L152.272 231.523L143.268 232.919L140.853 238.131L147.445 241.948L156.449 240.548L158.864 235.34Z" stroke="#F4F3EC" stroke-width="0.5" stroke-miterlimit="10"/>
<path opacity="0.5" d="M170.279 228.732L163.686 224.915L154.683 226.311L152.271 231.523L158.864 235.34L167.868 233.944L170.279 228.732Z" stroke="#F4F3EC" stroke-width="0.5" stroke-miterlimit="10"/>
<path opacity="0.5" d="M181.698 222.124L175.106 218.307L166.102 219.702L163.687 224.915L170.279 228.732L179.287 227.336L181.698 222.124Z" stroke="#F4F3EC" stroke-width="0.5" stroke-miterlimit="10"/>
<path opacity="0.5" d="M193.117 215.516L186.525 211.699L177.517 213.099L175.105 218.307L181.698 222.124L190.702 220.728L193.117 215.516Z" stroke="#F4F3EC" stroke-width="0.5" stroke-miterlimit="10"/>
<path opacity="0.5" d="M244.083 231.796L237.494 227.983L228.486 229.379L226.075 234.591L232.668 238.404L241.671 237.008L244.083 231.796Z" stroke="#F4F3EC" stroke-width="0.5" stroke-miterlimit="10"/>
<path opacity="0.5" d="M204.533 208.908L197.94 205.095L188.937 206.491L186.525 211.699L193.118 215.516L202.121 214.12L204.533 208.908Z" stroke="#F4F3EC" stroke-width="0.5" stroke-miterlimit="10"/>
<path opacity="0.5" d="M263.86 243.242L257.267 239.425L248.264 240.825L245.853 246.033L252.445 249.85L261.449 248.455L263.86 243.242Z" stroke="#F4F3EC" stroke-width="0.5" stroke-miterlimit="10"/>
<path opacity="0.5" d="M147.445 241.948L140.852 238.131L131.849 239.526L129.438 244.739L136.03 248.551L145.034 247.156L147.445 241.948Z" stroke="#F4F3EC" stroke-width="0.5" stroke-miterlimit="10"/>
<path opacity="0.5" d="M206.772 276.278L200.18 272.465L191.176 273.861L188.765 279.073L195.353 282.886L204.361 281.49L206.772 276.278Z" stroke="#F4F3EC" stroke-width="0.5" stroke-miterlimit="10"/>
<path opacity="0.5" d="M186.999 264.836L180.407 261.019L171.399 262.414L168.987 267.627L175.58 271.444L184.583 270.048L186.999 264.836Z" stroke="#F4F3EC" stroke-width="0.5" stroke-miterlimit="10"/>
<path opacity="0.5" d="M224.31 220.354L217.717 216.537L208.713 217.933L206.298 223.145L212.89 226.962L221.898 225.562L224.31 220.354Z" stroke="#F4F3EC" stroke-width="0.5" stroke-miterlimit="10"/>
<path opacity="0.5" d="M255.501 225.192L248.909 221.375L239.905 222.771L237.494 227.983L244.082 231.796L253.09 230.4L255.501 225.192Z" stroke="#F4F3EC" stroke-width="0.5" stroke-miterlimit="10"/>
<path opacity="0.5" d="M235.725 213.746L229.137 209.929L220.129 211.329L217.718 216.537L224.31 220.354L233.314 218.954L235.725 213.746Z" stroke="#F4F3EC" stroke-width="0.5" stroke-miterlimit="10"/>
<path opacity="0.5" d="M175.58 271.444L168.988 267.627L159.984 269.022L157.568 274.235L164.161 278.052L173.169 276.652L175.58 271.444Z" stroke="#F4F3EC" stroke-width="0.5" stroke-miterlimit="10"/>
<path opacity="0.5" d="M155.803 259.998L149.211 256.181L140.207 257.581L137.796 262.789L144.388 266.605L153.392 265.21L155.803 259.998Z" stroke="#F4F3EC" stroke-width="0.5" stroke-miterlimit="10"/>
<path opacity="0.5" d="M167.222 253.39L160.629 249.577L151.626 250.973L149.21 256.181L155.802 259.998L164.806 258.602L167.222 253.39Z" stroke="#F4F3EC" stroke-width="0.5" stroke-miterlimit="10"/>
<path opacity="0.5" d="M178.637 246.781L172.049 242.969L163.041 244.365L160.63 249.577L167.222 253.389L176.226 251.994L178.637 246.781Z" stroke="#F4F3EC" stroke-width="0.5" stroke-miterlimit="10"/>
<path opacity="0.5" d="M190.056 240.174L183.464 236.361L174.46 237.757L172.049 242.969L178.637 246.782L187.645 245.386L190.056 240.174Z" stroke="#F4F3EC" stroke-width="0.5" stroke-miterlimit="10"/>
<path opacity="0.5" d="M201.476 233.566L194.883 229.753L185.879 231.149L183.464 236.361L190.056 240.174L199.06 238.778L201.476 233.566Z" stroke="#F4F3EC" stroke-width="0.5" stroke-miterlimit="10"/>
<path opacity="0.5" d="M212.89 226.962L206.298 223.145L197.294 224.541L194.883 229.753L201.475 233.566L210.479 232.17L212.89 226.962Z" stroke="#F4F3EC" stroke-width="0.5" stroke-miterlimit="10"/>
</g>
<path style="mix-blend-mode:multiply" d="M112.624 153.878L48 191.255L175.268 264.946C181.242 268.217 188.252 269.027 194.812 267.204L227.99 257.981L229.193 255.974C231.173 252.676 232.469 249.011 233.001 245.199C233.534 241.387 233.292 237.507 232.292 233.791C231.292 230.074 229.553 226.599 227.179 223.573C224.806 220.547 221.847 218.033 218.481 216.181L112.624 153.878Z" fill="url(#paint0_linear_909_43430)"/>
<path d="M184.891 264.726C185.649 264.842 186.421 264.842 187.179 264.726L225.666 258.761C226.478 258.629 227.264 258.365 227.99 257.977V240.094L184.891 246.892V264.726Z" fill="#D6D6D4"/>
<path d="M239.492 234.997V216.947L234.134 227.728L227.985 240.09V257.977C229.432 257.218 230.591 256.004 231.284 254.521L238.799 238.289C239.275 237.26 239.509 236.135 239.484 235.001L239.492 234.997Z" fill="#BCBCBB"/>
<path d="M159.509 229.027L153.8 225.012V242.912C153.8 243.053 153.8 243.185 153.822 243.321C153.868 244.578 154.231 245.803 154.878 246.881C155.525 247.959 156.434 248.855 157.52 249.485L182.304 263.828C183.049 264.26 183.863 264.558 184.711 264.708L184.882 264.735V246.892L159.509 229.027Z" fill="#BCBCBB"/>
<path d="M235.768 210.779L210.984 196.436C209.511 195.585 207.793 195.264 206.113 195.525L167.626 201.494C166.414 201.683 165.267 202.168 164.286 202.907C163.306 203.646 162.522 204.615 162.004 205.729L154.489 221.961C153.709 223.654 153.587 225.579 154.149 227.358C154.71 229.136 155.914 230.641 157.524 231.576L182.308 245.919C183.779 246.771 185.496 247.092 187.175 246.83L225.662 240.865C226.875 240.676 228.022 240.19 229.002 239.45C229.983 238.711 230.767 237.741 231.284 236.625L238.799 220.394C239.58 218.701 239.702 216.777 239.141 214.998C238.581 213.22 237.378 211.715 235.768 210.779Z" fill="#F4F3EC"/>
<path d="M200.645 228.604C202.782 228.604 204.514 227.601 204.514 226.363C204.514 225.126 202.782 224.123 200.645 224.123C198.508 224.123 196.775 225.126 196.775 226.363C196.775 227.601 198.508 228.604 200.645 228.604Z" fill="#122A5B"/>
<path d="M204.515 221.252H196.771V226.355H204.515V221.252Z" fill="#122A5B"/>
<path d="M199.569 222.437V228.503L188.848 234.71V228.639L199.569 222.437Z" fill="#193B91"/>
<path d="M206.465 211.796V217.867L222.36 223.66V217.589L206.465 211.796Z" fill="#193B91"/>
<path d="M191.035 205.672C193.172 205.672 194.905 204.669 194.905 203.431C194.905 202.194 193.172 201.191 191.035 201.191C188.898 201.191 187.166 202.194 187.166 203.431C187.166 204.669 188.898 205.672 191.035 205.672Z" fill="#122A5B"/>
<path d="M194.909 198.32H187.166V203.423H194.909V198.32Z" fill="#122A5B"/>
<path d="M189.885 199.465V205.536L180.648 210.88V204.809L189.885 199.465Z" fill="#193B91"/>
<path d="M163.568 221.507C165.705 221.507 167.437 220.504 167.437 219.267C167.437 218.029 165.705 217.026 163.568 217.026C161.431 217.026 159.698 218.029 159.698 219.267C159.698 220.504 161.431 221.507 163.568 221.507Z" fill="#2045AF"/>
<path d="M167.441 213.055H159.698V219.258H167.441V213.055Z" fill="#2045AF"/>
<path d="M163.813 215.397V221.463L173.827 230.664V224.594L163.813 215.397Z" fill="#2E55DE"/>
<path d="M177.209 233.979C179.346 233.979 181.079 232.976 181.079 231.739C181.079 230.501 179.346 229.498 177.209 229.498C175.072 229.498 173.34 230.501 173.34 231.739C173.34 232.976 175.072 233.979 177.209 233.979Z" fill="#2045AF"/>
<path d="M181.083 225.527H173.34V231.73H181.083V225.527Z" fill="#2045AF"/>
<path d="M226.246 226.055C228.383 226.055 230.116 225.052 230.116 223.815C230.116 222.577 228.383 221.574 226.246 221.574C224.109 221.574 222.377 222.577 222.377 223.815C222.377 225.052 224.109 226.055 226.246 226.055Z" fill="#2045AF"/>
<path d="M230.115 217.603H222.372V223.806H230.115V217.603Z" fill="#2045AF"/>
<path d="M225.148 219.874V225.945L202.573 239.011V232.941L225.148 219.874Z" fill="#193B91"/>
<path d="M179.089 227.64L194.984 233.434V239.505L179.089 233.707V227.64Z" fill="#2E55DE"/>
<path d="M198.866 241.886C201.003 241.886 202.736 240.883 202.736 239.645C202.736 238.408 201.003 237.405 198.866 237.405C196.729 237.405 194.997 238.408 194.997 239.645C194.997 240.883 196.729 241.886 198.866 241.886Z" fill="#2045AF"/>
<path d="M202.74 233.434H194.997V239.637H202.74V233.434Z" fill="#2045AF"/>
<path d="M167.305 212.536V218.602L177.942 212.448V206.381L167.305 212.536Z" fill="#193B91"/>
<path d="M177.942 206.381V212.448L183.085 217.176V211.105L177.942 206.381Z" fill="#122A5B"/>
<path d="M186.56 220.442C188.697 220.442 190.429 219.439 190.429 218.201C190.429 216.964 188.697 215.961 186.56 215.961C184.423 215.961 182.69 216.964 182.69 218.201C182.69 219.439 184.423 220.442 186.56 220.442Z" fill="#2045AF"/>
<path d="M190.429 218.193H182.686V213.623L190.429 211.99V218.193Z" fill="#2045AF"/>
<path d="M185.554 214.288V220.358L174.188 226.936V220.865L185.554 214.288Z" fill="#193B91"/>
<path d="M191.188 199.553V205.624L201.202 214.82V208.75L191.188 199.553Z" fill="#122A5B"/>
<path d="M204.563 218.105C206.7 218.105 208.432 217.101 208.432 215.864C208.432 214.626 206.7 213.623 204.563 213.623C202.426 213.623 200.693 214.626 200.693 215.864C200.693 217.101 202.426 218.105 204.563 218.105Z" fill="#193B91"/>
<path d="M208.437 209.652H200.693V215.855H208.437V209.652Z" fill="#193B91"/>
<path d="M202.375 222.287V228.358L204.114 228.992L210.549 225.267L202.375 222.287Z" fill="#122A5B"/>
<path d="M214.019 206.583V212.029L221.344 214.666L214.019 206.583Z" fill="#122A5B"/>
<path d="M210.211 204.378V210.612L214.019 212.029V206.584L210.211 204.378Z" fill="#122A5B"/>
<path d="M196.244 200.138L204.361 207.596L208.458 209.969L210.211 210.612V204.378L196.244 200.138Z" fill="#193B91"/>
<path d="M202.573 232.941L225.148 219.874C226.452 220.115 227.798 219.918 228.978 219.315C230.498 218.435 230.498 217.008 228.978 216.132C228.155 215.691 227.233 215.466 226.299 215.476L217.335 205.58C218.341 204.699 218.178 203.515 216.848 202.745C216.093 202.362 215.268 202.14 214.424 202.091C213.58 202.043 212.735 202.169 211.942 202.463L194.843 197.273C194.843 196.709 194.453 196.15 193.71 195.723C192.859 195.289 191.917 195.062 190.961 195.062C190.005 195.062 189.063 195.289 188.212 195.723C187.175 196.322 186.863 197.176 187.241 197.924L164.666 210.99C163.362 210.75 162.016 210.948 160.836 211.554C159.316 212.434 159.316 213.856 160.836 214.737C161.752 215.217 162.781 215.44 163.814 215.38L173.828 224.581C173.011 225.435 173.208 226.531 174.464 227.257C175.899 227.981 177.559 228.114 179.089 227.627L194.984 233.421C194.923 234.041 195.283 234.671 196.104 235.142C196.956 235.576 197.898 235.802 198.853 235.802C199.809 235.802 200.751 235.576 201.603 235.142C202.639 234.556 202.951 233.702 202.573 232.941ZM196.978 231.62L188.848 228.657L199.569 222.454C200.505 222.61 201.462 222.559 202.376 222.305L210.549 225.285L199.929 231.448C198.947 231.271 197.937 231.324 196.978 231.602V231.62ZM179.963 224.105C179.048 223.623 178.018 223.399 176.986 223.458L174.188 220.883L185.554 214.305C186.828 214.521 188.137 214.319 189.288 213.729C190.807 212.848 190.807 211.422 189.288 210.546C188.33 210.045 187.251 209.824 186.174 209.907L180.64 204.809L189.863 199.465C190.298 199.539 190.739 199.569 191.181 199.553L201.194 208.75C200.373 209.608 200.575 210.7 201.831 211.426C203.266 212.15 204.925 212.283 206.456 211.796L222.364 217.59C222.34 217.851 222.392 218.114 222.513 218.347L213.259 223.7L204.497 220.504C204.607 219.857 204.251 219.183 203.395 218.69C202.543 218.256 201.601 218.03 200.645 218.03C199.69 218.03 198.748 218.256 197.896 218.69C196.859 219.289 196.548 220.143 196.925 220.891L185.603 227.46L181.079 225.809C181.145 225.197 180.785 224.559 179.963 224.088V224.105ZM167.305 212.553L177.939 206.39L183.086 211.109C182.869 211.327 182.728 211.61 182.685 211.915C182.642 212.22 182.7 212.53 182.849 212.8L172.145 218.99L166.976 214.239C167.211 214.032 167.371 213.752 167.43 213.444C167.49 213.136 167.446 212.816 167.305 212.536V212.553ZM210.211 204.396C210.233 204.959 210.606 205.514 211.344 205.945C212.168 206.382 213.087 206.608 214.019 206.601L221.345 214.684L208.459 209.987C208.52 209.366 208.156 208.736 207.339 208.261C206.424 207.771 205.393 207.538 204.357 207.587L196.24 200.13L210.211 204.396Z" fill="#699FFF"/>
<path d="M197.645 256.757V251.963L195.972 252.223V251.395L200.403 250.73V251.558L198.721 251.818V256.612L197.645 256.757Z" fill="#BCBCBB"/>
<path d="M201.571 256.15V250.528L205.322 249.947V250.775L202.621 251.193V252.734L205.076 252.355V253.156L202.621 253.539V255.159L205.322 254.741V255.573L201.571 256.15Z" fill="#BCBCBB"/>
<path d="M206.728 255.349V249.731L207.777 249.568V251.84L209.903 249.238L211.221 249.036L209.082 251.611L211.278 254.662L209.986 254.86L208.309 252.492L207.76 253.165V255.177L206.728 255.349Z" fill="#BCBCBB"/>
<path d="M214.611 254.226C214.231 254.295 213.84 254.272 213.469 254.16C213.136 254.053 212.851 253.834 212.661 253.539C212.442 253.175 212.337 252.754 212.358 252.329V248.86L213.412 248.697V252.17C213.393 252.34 213.413 252.511 213.469 252.672C213.525 252.833 213.617 252.979 213.737 253.099C213.862 253.191 214.005 253.255 214.157 253.286C214.308 253.318 214.465 253.318 214.616 253.284C214.954 253.238 215.264 253.074 215.494 252.822C215.729 252.532 215.846 252.164 215.824 251.792V248.318L216.873 248.155V251.611C216.887 252.071 216.78 252.527 216.561 252.932C216.362 253.291 216.075 253.594 215.727 253.812C215.386 254.022 215.007 254.163 214.611 254.226Z" fill="#828385"/>
<path d="M198.322 257.334V252.522L196.648 252.782V251.959L201.04 251.272V252.1L199.358 252.364V257.154L198.322 257.334Z" fill="#12262C"/>
<path d="M202.248 256.709V251.092L205.999 250.51V251.334L203.298 251.752V253.297L205.753 252.914V253.72L203.298 254.098V255.718L205.999 255.3V256.128L202.248 256.709Z" fill="#12262C"/>
<path d="M207.404 255.912V250.29L208.454 250.128V252.399L210.58 249.797L211.897 249.599L209.776 252.157L211.972 255.208L210.681 255.41L209.038 253.064L208.489 253.733V255.749L207.404 255.912Z" fill="#12262C"/>
<path d="M215.288 254.785C214.907 254.854 214.516 254.831 214.146 254.719C213.813 254.615 213.527 254.397 213.338 254.103C213.119 253.737 213.014 253.314 213.035 252.888V249.41L214.089 249.247V252.725C214.071 252.894 214.091 253.065 214.146 253.225C214.201 253.386 214.291 253.532 214.41 253.654C214.537 253.748 214.684 253.813 214.84 253.844C214.995 253.875 215.156 253.872 215.31 253.834C215.645 253.795 215.956 253.639 216.188 253.394C216.422 253.104 216.539 252.736 216.518 252.364V248.886L217.567 248.723V252.192C217.582 252.652 217.474 253.108 217.256 253.513C217.057 253.873 216.77 254.176 216.421 254.393C216.075 254.601 215.689 254.735 215.288 254.785V254.785Z" fill="#12262C"/>
<path d="M216.536 248.877L215.859 248.318L216.909 248.155L217.585 248.714L216.536 248.877Z" fill="#BCBCBB"/>
<path d="M214.089 249.256L213.412 248.697L212.358 248.86L213.035 249.419L214.089 249.256Z" fill="#BCBCBB"/>
<path d="M211.88 249.599L211.203 249.036L209.903 249.238L210.58 249.797L211.88 249.599Z" fill="#BCBCBB"/>
<path d="M208.454 250.127L207.777 249.568L206.728 249.731L207.404 250.29L208.454 250.127Z" fill="#BCBCBB"/>
<path d="M202.248 251.092L201.571 250.528L205.322 249.947L205.998 250.511L202.248 251.092Z" fill="#BCBCBB"/>
<path d="M201.058 251.276L200.381 250.713L195.972 251.395L196.648 251.959L201.058 251.276Z" fill="#BCBCBB"/>
<path d="M203.298 253.297V252.628L205.077 252.355L205.753 252.914L203.298 253.297Z" fill="#BCBCBB"/>
<path d="M203.298 255.719V255.054L205.323 254.741L205.999 255.3L203.298 255.719Z" fill="#BCBCBB"/>
<path d="M210.58 249.797L209.903 249.238L208.454 251.012V252.404L210.58 249.797Z" fill="#828385"/>
<path d="M206.728 249.731L207.404 250.29V255.912L206.728 255.353V249.731Z" fill="#828385"/>
<path d="M210.645 255.41L209.973 254.847L208.854 253.249L209.003 253.064L210.645 255.41Z" fill="#828385"/>
<path d="M202.248 251.092L201.571 250.528V256.15L202.248 256.709V251.092Z" fill="#828385"/>
<path d="M196.648 251.959L195.972 251.395V252.223L196.648 252.786V251.959Z" fill="#828385"/>
<path d="M197.646 256.758L198.322 257.317V252.522L197.646 252.628V256.758Z" fill="#828385"/>
<g style="mix-blend-mode:multiply" opacity="0.5">
<path d="M187.179 222.555L225.666 216.59C226.879 216.401 228.026 215.915 229.007 215.176C229.987 214.436 230.771 213.466 231.288 212.351L232.817 209.049L210.984 196.414C209.51 195.568 207.791 195.251 206.113 195.516L167.626 201.486C166.413 201.675 165.266 202.161 164.286 202.9C163.305 203.64 162.521 204.61 162.004 205.725L160.476 209.027L182.313 221.675C183.788 222.514 185.504 222.825 187.179 222.555V222.555Z" fill="#12262C"/>
</g>
<path d="M239.492 178.778V160.728L234.134 171.51L227.985 183.872V201.763C229.432 201.004 230.591 199.79 231.284 198.307L238.799 182.075C239.274 181.046 239.508 179.921 239.484 178.787L239.492 178.778Z" fill="#BCBCBB"/>
<path d="M159.509 172.808L153.8 168.798V186.698C153.8 186.834 153.8 186.971 153.822 187.107C153.867 188.364 154.231 189.589 154.877 190.667C155.524 191.745 156.433 192.641 157.52 193.271L182.313 207.587C183.059 208.018 183.873 208.315 184.72 208.468L184.891 208.49V190.669L159.509 172.808Z" fill="#BCBCBB"/>
<path d="M184.891 208.503C185.649 208.622 186.421 208.622 187.179 208.503L225.666 202.533C226.478 202.404 227.263 202.141 227.99 201.754V183.872L184.891 190.669V208.503Z" fill="#D6D6D4"/>
<path d="M235.768 154.561L210.984 140.231C209.513 139.374 207.794 139.047 206.113 139.302L167.625 145.272C166.413 145.461 165.266 145.947 164.285 146.686C163.305 147.426 162.521 148.396 162.004 149.511L154.493 165.765C153.713 167.458 153.591 169.383 154.152 171.161C154.714 172.94 155.918 174.444 157.528 175.38L182.312 189.718C183.782 190.572 185.5 190.895 187.179 190.634L225.666 184.664C226.878 184.475 228.025 183.99 229.006 183.252C229.986 182.513 230.77 181.544 231.288 180.429L238.803 164.198C239.59 162.502 239.715 160.572 239.153 158.788C238.591 157.005 237.383 155.496 235.768 154.561Z" fill="#F4F3EC"/>
<path d="M216.676 196.084C216.692 196.322 216.618 196.557 216.47 196.744C216.32 196.907 216.118 197.011 215.899 197.039C215.802 197.062 215.701 197.064 215.603 197.044C215.505 197.024 215.413 196.984 215.332 196.925C215.259 196.847 215.203 196.755 215.169 196.654C215.135 196.553 215.123 196.445 215.135 196.339V193.94L214.313 194.068V196.462C214.299 196.76 214.372 197.056 214.524 197.312C214.659 197.522 214.862 197.678 215.099 197.752C215.256 197.802 215.419 197.828 215.583 197.827C215.689 197.827 215.794 197.818 215.899 197.801V197.801C216.182 197.758 216.454 197.657 216.698 197.506C216.94 197.355 217.141 197.146 217.282 196.898C217.432 196.619 217.507 196.304 217.498 195.987V193.574L216.676 193.702V196.084Z" fill="#828385"/>
<path d="M218.464 196.802L218.846 197.233L219.079 196.964L218.464 196.802Z" fill="#828385"/>
<path d="M219.289 194.569C219.254 194.541 219.226 194.503 219.208 194.461C219.191 194.419 219.184 194.373 219.188 194.327C219.186 194.267 219.197 194.206 219.221 194.15C219.246 194.095 219.282 194.045 219.329 194.006C219.429 193.917 219.555 193.861 219.689 193.847C219.754 193.83 219.822 193.827 219.888 193.84C219.955 193.853 220.017 193.881 220.071 193.922C220.114 193.958 220.149 194.002 220.173 194.052C220.197 194.102 220.21 194.157 220.211 194.213V194.279L221.09 194.142V194.094C221.09 193.883 221.023 193.677 220.897 193.508C220.771 193.35 220.599 193.236 220.405 193.183C220.173 193.118 219.93 193.108 219.693 193.152C219.447 193.188 219.21 193.27 218.995 193.394C218.801 193.51 218.637 193.669 218.516 193.861C218.395 194.05 218.334 194.27 218.34 194.495C218.333 194.614 218.353 194.733 218.397 194.843C218.442 194.954 218.511 195.053 218.599 195.133C218.717 195.229 218.851 195.302 218.995 195.349L219.513 194.666C219.433 194.647 219.357 194.615 219.289 194.569V194.569Z" fill="#BCBCBB"/>
<path d="M221.046 195.234C220.943 195.097 220.803 194.991 220.642 194.93C220.467 194.864 220.286 194.814 220.102 194.781L219.619 194.693C219.587 194.687 219.556 194.678 219.526 194.666L219.008 195.349C219.112 195.383 219.217 195.411 219.324 195.432L219.843 195.525C219.975 195.543 220.101 195.591 220.212 195.666C220.256 195.7 220.291 195.745 220.313 195.797C220.336 195.848 220.345 195.905 220.339 195.961C220.341 196.025 220.328 196.09 220.303 196.149C220.277 196.208 220.238 196.261 220.19 196.304C220.067 196.411 219.913 196.478 219.75 196.493C219.67 196.513 219.586 196.515 219.505 196.499C219.424 196.483 219.347 196.449 219.28 196.401C219.225 196.356 219.18 196.299 219.149 196.234C219.118 196.169 219.101 196.098 219.1 196.027V195.965L218.222 196.097V196.141C218.21 196.37 218.279 196.597 218.416 196.781C218.553 196.965 218.75 197.095 218.973 197.149C219.116 197.188 219.264 197.207 219.412 197.206C219.806 197.202 220.191 197.095 220.532 196.898C220.729 196.771 220.893 196.599 221.011 196.396C221.115 196.212 221.171 196.005 221.173 195.793C221.194 195.598 221.15 195.401 221.046 195.234Z" fill="#828385"/>
<path d="M221.143 193.781L220.857 193.451H219.728L218.503 195.023L218.903 195.476L219.065 195.041L219.307 194.292L220.132 193.966L221.143 193.781Z" fill="#BCBCBB"/>
<path d="M188.87 197.99L188.049 198.118V202.032L190.548 201.644L190.592 201.64V200.984L188.87 201.252V197.99Z" fill="#BCBCBB"/>
<path d="M191.387 201.516L192.208 201.389V197.475L191.387 197.603V201.516Z" fill="#BCBCBB"/>
<path d="M200.157 197.823L198.523 198.074V196.498L197.702 196.621V200.535L198.523 200.407V198.752L200.157 198.501V200.156L200.979 200.028V196.115L200.157 196.242V197.823Z" fill="#BCBCBB"/>
<path d="M201.677 196.009V196.678L202.81 196.502V199.747L203.627 199.619V196.375L204.769 196.198V195.529L201.721 196L201.677 196.009Z" fill="#BCBCBB"/>
<path d="M207.918 196.621L206.284 196.876V195.291L205.463 195.419V199.333L206.284 199.205V197.55L207.918 197.299V198.954L208.739 198.827V194.913L207.918 195.041V196.621Z" fill="#BCBCBB"/>
<path d="M212.578 194.512C212.245 194.385 211.884 194.351 211.533 194.415C211.164 194.468 210.812 194.607 210.505 194.82C210.206 195.039 209.964 195.326 209.798 195.658C209.632 195.989 209.548 196.356 209.552 196.727C209.543 197.081 209.632 197.431 209.807 197.739C209.97 198.01 210.214 198.221 210.505 198.342C210.717 198.429 210.944 198.473 211.173 198.47C211.679 198.471 212.174 198.317 212.592 198.03C212.887 197.818 213.128 197.539 213.294 197.215C213.463 196.878 213.548 196.505 213.545 196.128C213.554 195.772 213.466 195.42 213.29 195.111C213.125 194.838 212.875 194.628 212.578 194.512V194.512ZM212.701 196.247C212.715 196.607 212.604 196.96 212.385 197.246C212.172 197.508 211.867 197.678 211.533 197.722V197.722C211.387 197.756 211.234 197.756 211.088 197.72C210.941 197.685 210.805 197.616 210.69 197.519C210.579 197.402 210.494 197.264 210.439 197.112C210.385 196.961 210.362 196.799 210.374 196.639C210.359 196.278 210.473 195.924 210.694 195.639C210.908 195.376 211.215 195.206 211.551 195.164C211.624 195.157 211.697 195.157 211.77 195.164C211.998 195.155 212.22 195.236 212.39 195.388C212.497 195.503 212.579 195.638 212.633 195.786C212.686 195.933 212.71 196.09 212.701 196.247V196.247Z" fill="#BCBCBB"/>
<path d="M224.639 193.121V192.452L222.034 192.853L221.99 192.861V196.775L224.59 196.37L224.639 196.366V195.692L222.812 195.978V194.992L224.472 194.732V194.081L222.812 194.336V193.403L224.639 193.121Z" fill="#BCBCBB"/>
<path d="M225.003 192.861L224.639 192.452L221.99 192.861L222.355 193.271L225.003 192.861Z" fill="#BCBCBB"/>
<path d="M224.471 194.081L224.836 194.49L223.176 194.746V194.279L224.471 194.081Z" fill="#BCBCBB"/>
<path d="M224.638 195.692L225.003 196.102L223.176 196.388V195.921L224.638 195.692Z" fill="#BCBCBB"/>
<path d="M222.355 193.271L221.99 192.861V196.775L222.355 197.184V193.271Z" fill="#828385"/>
<path d="M218.253 196.097L218.622 196.507L219.483 196.37L219.114 195.965L218.253 196.097Z" fill="#BCBCBB"/>
<path d="M220.186 194.226L220.598 194.684L220.682 193.966L220.186 194.226Z" fill="#828385"/>
<path d="M220.132 196.903C220.287 196.885 220.433 196.819 220.549 196.713C220.598 196.671 220.636 196.618 220.662 196.559C220.688 196.499 220.7 196.435 220.698 196.37C220.704 196.315 220.695 196.259 220.674 196.207C220.652 196.156 220.619 196.11 220.576 196.075C220.502 196.025 220.42 195.989 220.334 195.969C220.33 196.096 220.277 196.217 220.185 196.304C220.062 196.412 219.908 196.478 219.745 196.493C219.657 196.507 219.566 196.507 219.478 196.493C219.489 196.616 219.547 196.73 219.64 196.81C219.71 196.861 219.791 196.896 219.876 196.912C219.961 196.928 220.048 196.925 220.132 196.903V196.903Z" fill="#828385"/>
<path d="M217.498 193.557L217.867 193.966L217.045 194.094L216.681 193.685L217.498 193.557Z" fill="#BCBCBB"/>
<path d="M215.134 193.922L215.498 194.332L214.677 194.459L214.312 194.05L215.134 193.922Z" fill="#BCBCBB"/>
<path d="M210.154 196.062C210.32 195.737 210.561 195.456 210.857 195.243C211.163 195.014 211.52 194.863 211.898 194.803C212.248 194.738 212.61 194.772 212.943 194.9C213.066 194.951 213.181 195.019 213.286 195.102C213.123 194.827 212.875 194.613 212.578 194.495C212.245 194.367 211.884 194.333 211.533 194.398C211.162 194.456 210.81 194.601 210.505 194.82C210.206 195.039 209.964 195.326 209.798 195.658C209.632 195.989 209.548 196.356 209.552 196.727C209.543 197.081 209.632 197.431 209.807 197.739C209.904 197.895 210.027 198.032 210.172 198.144C209.998 197.838 209.911 197.489 209.921 197.136C209.913 196.765 209.993 196.397 210.154 196.062V196.062Z" fill="#BCBCBB"/>
<path d="M212.385 197.246C212.172 197.508 211.867 197.678 211.533 197.721V197.721C211.304 197.769 211.067 197.739 210.856 197.638C210.903 197.745 210.97 197.843 211.054 197.924C211.169 198.022 211.305 198.092 211.451 198.128C211.598 198.164 211.75 198.165 211.897 198.131V198.131C212.232 198.09 212.538 197.919 212.749 197.655C212.969 197.37 213.083 197.017 213.07 196.656C213.082 196.495 213.059 196.334 213.005 196.182C212.951 196.031 212.865 195.892 212.754 195.776C212.705 195.727 212.649 195.687 212.587 195.657C212.667 195.846 212.706 196.05 212.701 196.255C212.713 196.612 212.601 196.962 212.385 197.246V197.246Z" fill="#828385"/>
<path d="M208.739 194.913L209.108 195.322L208.287 195.45L207.918 195.041L208.739 194.913Z" fill="#BCBCBB"/>
<path d="M206.284 195.292L206.653 195.701L205.832 195.829L205.463 195.419L206.284 195.292Z" fill="#BCBCBB"/>
<path d="M207.918 195.041V196.621L208.287 197.03V195.45L207.918 195.041Z" fill="#828385"/>
<path d="M206.653 196.819V197.281L208.287 197.03L207.918 196.621L206.653 196.819Z" fill="#BCBCBB"/>
<path d="M205.832 199.742L205.463 199.333V195.419L205.832 195.829V199.742Z" fill="#828385"/>
<path d="M207.918 198.954L208.287 199.364V197.708L207.918 197.765V198.954Z" fill="#828385"/>
<path d="M203.175 200.156L202.811 199.747V196.969L203.175 196.912V200.156Z" fill="#828385"/>
<path d="M202.041 197.088L201.677 196.678V196.009L202.041 196.418V197.088Z" fill="#828385"/>
<path d="M204.769 195.529L205.133 195.939L202.041 196.419L201.677 196.009L204.769 195.529Z" fill="#BCBCBB"/>
<path d="M200.157 196.242L200.526 196.652L201.347 196.524L200.979 196.115L200.157 196.242Z" fill="#BCBCBB"/>
<path d="M197.702 196.621L198.071 197.03L198.892 196.903L198.523 196.498L197.702 196.621Z" fill="#BCBCBB"/>
<path d="M198.893 198.483V198.021L200.157 197.823L200.526 198.232L198.893 198.483Z" fill="#BCBCBB"/>
<path d="M200.157 196.242V197.823L200.526 198.232V196.652L200.157 196.242Z" fill="#828385"/>
<path d="M200.157 200.156L200.526 200.565V198.91L200.157 198.967V200.156Z" fill="#828385"/>
<path d="M198.071 200.944L197.702 200.535V196.621L198.071 197.031V200.944Z" fill="#828385"/>
<path d="M195.036 198.747L195.405 199.157L197.215 198.875L196.846 198.466L195.036 198.747Z" fill="#BCBCBB"/>
<path d="M196.455 201.195L196.209 201.015L196.411 200.794L196.455 201.195Z" fill="#828385"/>
<path d="M189.239 198.399L188.418 198.527V202.441L190.913 202.053L190.961 202.049V201.393L189.239 201.657V198.399Z" fill="#12262C"/>
<path d="M191.756 201.922L192.577 201.798V197.88L191.756 198.012V201.922Z" fill="#12262C"/>
<path d="M195.405 199.157V199.791L196.376 199.637C196.339 199.889 196.235 200.126 196.073 200.323C195.875 200.541 195.605 200.677 195.313 200.706C195.172 200.74 195.026 200.739 194.885 200.705C194.745 200.67 194.615 200.603 194.505 200.508C194.398 200.39 194.317 200.25 194.267 200.099C194.216 199.947 194.197 199.787 194.211 199.628C194.197 199.267 194.303 198.912 194.514 198.62C194.732 198.35 195.048 198.178 195.392 198.14C195.582 198.1 195.78 198.118 195.959 198.193C196.028 198.225 196.09 198.271 196.141 198.329C196.192 198.387 196.23 198.454 196.253 198.527V198.571L197.131 198.43V198.373C197.095 198.199 197.021 198.034 196.916 197.891C196.811 197.747 196.676 197.628 196.521 197.541C196.159 197.361 195.748 197.308 195.353 197.391C194.969 197.447 194.605 197.598 194.294 197.832C194 198.045 193.763 198.328 193.605 198.655C193.441 198.997 193.358 199.372 193.363 199.751C193.353 200.103 193.433 200.452 193.596 200.764C193.746 201.033 193.98 201.246 194.263 201.367C194.468 201.453 194.687 201.497 194.909 201.494C195.024 201.494 195.138 201.485 195.252 201.468C195.517 201.434 195.772 201.343 195.998 201.199C196.153 201.095 196.29 200.966 196.402 200.816L196.446 201.217L197.206 201.098V198.897L195.449 199.17L195.405 199.157Z" fill="#12262C"/>
<path d="M200.526 198.232L198.893 198.483V196.903L198.071 197.03V200.944L198.893 200.817V199.161L200.526 198.91V200.566L201.348 200.438V196.524L200.526 196.652V198.232Z" fill="#12262C"/>
<path d="M202.042 196.419V197.088L203.175 196.912V200.156L203.996 200.029V196.784L205.134 196.608V195.939L202.09 196.41L202.042 196.419Z" fill="#12262C"/>
<path d="M208.287 197.03L206.653 197.281V195.701L205.832 195.829V199.742L206.653 199.615V197.959L208.287 197.708V199.364L209.108 199.236V195.322L208.287 195.45V197.03Z" fill="#12262C"/>
<path d="M212.943 194.922C212.61 194.794 212.248 194.76 211.897 194.825C211.52 194.885 211.163 195.036 210.856 195.265C210.561 195.478 210.32 195.759 210.154 196.084C209.984 196.421 209.899 196.794 209.903 197.171C209.892 197.526 209.98 197.877 210.158 198.184C210.322 198.458 210.57 198.671 210.865 198.791C211.079 198.878 211.307 198.921 211.537 198.919C211.664 198.919 211.79 198.909 211.915 198.888C212.29 198.833 212.646 198.69 212.956 198.47C213.253 198.259 213.493 197.978 213.654 197.651C213.823 197.316 213.909 196.944 213.904 196.568C213.915 196.213 213.829 195.861 213.654 195.551C213.494 195.268 213.243 195.046 212.943 194.922ZM213.07 196.656C213.083 197.017 212.969 197.37 212.749 197.656C212.538 197.92 212.232 198.09 211.897 198.131V198.131C211.75 198.165 211.597 198.164 211.451 198.128C211.304 198.092 211.168 198.022 211.054 197.924C210.943 197.808 210.858 197.669 210.803 197.517C210.749 197.366 210.726 197.204 210.738 197.044C210.725 196.683 210.838 196.33 211.058 196.044C211.192 195.89 211.358 195.766 211.543 195.681C211.729 195.596 211.93 195.552 212.134 195.551C212.362 195.543 212.584 195.623 212.754 195.776C212.865 195.892 212.95 196.031 213.005 196.182C213.059 196.334 213.081 196.496 213.07 196.656V196.656Z" fill="#12262C"/>
<path d="M217.045 196.493C217.058 196.731 216.985 196.966 216.838 197.154C216.688 197.317 216.483 197.42 216.263 197.444C216.167 197.469 216.066 197.473 215.969 197.454C215.872 197.435 215.78 197.394 215.701 197.334C215.626 197.257 215.57 197.165 215.535 197.064C215.5 196.963 215.488 196.855 215.499 196.749V194.332L214.677 194.459V196.854C214.664 197.153 214.739 197.448 214.892 197.704C215.027 197.914 215.231 198.069 215.468 198.144C215.624 198.194 215.787 198.22 215.951 198.219C216.055 198.219 216.16 198.21 216.263 198.193C216.548 198.15 216.822 198.05 217.067 197.898C217.307 197.747 217.507 197.538 217.646 197.29C217.798 197.009 217.874 196.694 217.866 196.374V193.966L217.045 194.094V196.493Z" fill="#12262C"/>
<path d="M221.002 195.34C220.827 195.272 220.646 195.222 220.462 195.19L219.983 195.102C219.872 195.083 219.766 195.041 219.671 194.979C219.636 194.949 219.609 194.912 219.592 194.87C219.574 194.828 219.567 194.782 219.57 194.737C219.569 194.676 219.58 194.616 219.605 194.56C219.629 194.505 219.665 194.455 219.711 194.415C219.812 194.326 219.94 194.27 220.075 194.257C220.14 194.241 220.208 194.239 220.274 194.252C220.34 194.265 220.403 194.292 220.457 194.332C220.5 194.367 220.534 194.412 220.558 194.462C220.581 194.512 220.593 194.567 220.593 194.622V194.688L221.472 194.552V194.503C221.47 194.293 221.403 194.088 221.279 193.918C221.153 193.759 220.978 193.644 220.782 193.592C220.552 193.528 220.31 193.517 220.075 193.561C219.829 193.594 219.591 193.677 219.377 193.804C219.182 193.92 219.017 194.08 218.894 194.27C218.774 194.459 218.714 194.68 218.722 194.904C218.714 195.023 218.733 195.142 218.777 195.252C218.821 195.363 218.89 195.462 218.977 195.542C219.184 195.703 219.43 195.806 219.689 195.842L220.211 195.934C220.343 195.953 220.469 196.001 220.58 196.075C220.623 196.11 220.657 196.156 220.679 196.207C220.7 196.259 220.708 196.315 220.703 196.37C220.705 196.435 220.693 196.499 220.667 196.558C220.641 196.618 220.602 196.671 220.554 196.713C220.438 196.819 220.292 196.885 220.137 196.903C220.056 196.922 219.971 196.924 219.89 196.908C219.808 196.892 219.73 196.858 219.662 196.81C219.608 196.764 219.564 196.706 219.533 196.64C219.503 196.575 219.487 196.504 219.487 196.432V196.374L218.63 196.507V196.555C218.619 196.784 218.687 197.011 218.824 197.195C218.962 197.379 219.158 197.509 219.381 197.563C219.524 197.602 219.672 197.621 219.82 197.62C219.937 197.618 220.053 197.608 220.167 197.59C220.441 197.555 220.703 197.46 220.936 197.312C221.134 197.186 221.298 197.014 221.415 196.81C221.521 196.627 221.577 196.419 221.577 196.207C221.588 196.008 221.534 195.81 221.423 195.644C221.317 195.502 221.17 195.396 221.002 195.34Z" fill="#12262C"/>
<path d="M225.003 193.53V192.861L222.403 193.262L222.354 193.271V197.184L224.959 196.779L225.003 196.775V196.101L223.176 196.388V195.402L224.836 195.142V194.49L223.176 194.746V193.812L225.003 193.53Z" fill="#12262C"/>
<path d="M195.405 199.791L195.036 199.381V198.747L195.405 199.157" fill="#828385"/>
<path d="M194.944 200.297C194.733 200.34 194.512 200.314 194.316 200.222C194.359 200.329 194.423 200.427 194.505 200.508C194.615 200.603 194.745 200.67 194.886 200.705C195.026 200.739 195.173 200.74 195.313 200.706C195.605 200.677 195.876 200.54 196.073 200.323C196.235 200.126 196.34 199.889 196.376 199.636L195.827 199.725C195.792 199.79 195.752 199.853 195.709 199.914C195.509 200.131 195.237 200.267 194.944 200.297V200.297Z" fill="#828385"/>
<path d="M193.376 199.729C193.371 199.35 193.453 198.975 193.617 198.633C193.776 198.306 194.013 198.023 194.307 197.81C194.617 197.576 194.981 197.425 195.365 197.369C195.76 197.286 196.172 197.339 196.534 197.519C196.57 197.542 196.606 197.567 196.639 197.594C196.529 197.391 196.365 197.223 196.165 197.11C195.803 196.929 195.391 196.877 194.996 196.96C194.613 197.019 194.25 197.17 193.938 197.4C193.645 197.614 193.408 197.897 193.248 198.223C193.087 198.566 193.004 198.941 193.007 199.32C192.996 199.672 193.078 200.021 193.244 200.332C193.342 200.503 193.474 200.653 193.63 200.772L193.608 200.742C193.446 200.43 193.366 200.081 193.376 199.729V199.729Z" fill="#BCBCBB"/>
<path d="M191.387 197.603L191.756 198.012L192.577 197.88L192.208 197.475L191.387 197.603Z" fill="#BCBCBB"/>
<path d="M191.756 201.922L191.387 201.516V197.603L191.756 198.012V201.922Z" fill="#828385"/>
<path d="M188.049 198.118L188.418 198.527L189.239 198.4L188.87 197.99L188.049 198.118Z" fill="#BCBCBB"/>
<path d="M188.418 202.441L188.049 202.031V198.118L188.418 198.527V202.441Z" fill="#828385"/>
<path d="M190.592 200.984L190.961 201.393L189.239 201.657V201.195L190.592 200.984Z" fill="#BCBCBB"/>
<path d="M196.648 171.928C202.036 171.928 206.403 169.399 206.403 166.28C206.403 163.16 202.036 160.632 196.648 160.632C191.261 160.632 186.894 163.16 186.894 166.28C186.894 169.399 191.261 171.928 196.648 171.928Z" fill="#2E55DE"/>
<path d="M205.177 173.398C202.908 174.279 200.511 174.786 198.08 174.9V180.42H195.221V174.9C192.423 174.781 189.674 174.122 187.126 172.958L180.38 176.863L178.36 175.692L185.106 171.791C183.147 170.418 182.031 168.78 181.75 167.107H172.215V165.452H181.75C182.027 163.775 183.147 162.137 185.106 160.768L178.36 156.863L180.38 155.692L187.126 159.601C189.674 158.438 192.423 157.779 195.221 157.66V152.117H198.08V157.638C200.879 157.764 203.628 158.43 206.174 159.601L212.916 155.696L214.941 156.867L208.195 160.772C210.154 162.141 211.269 163.779 211.55 165.456H221.085V167.112H211.55C211.313 168.556 210.443 169.973 208.95 171.219L220.554 177.933C230.923 170.827 230.326 160.187 218.753 153.491C206.548 146.425 186.753 146.425 174.547 153.491C162.342 160.557 162.337 172.012 174.547 179.073C186.116 185.773 204.501 186.117 216.781 180.116L205.177 173.398Z" fill="#2E55DE"/>
<path d="M208.95 164.937V171.215L220.554 177.928V171.651L208.95 164.937Z" fill="#193B91"/>
<path d="M216.782 180.112V173.834L185.106 175.873L165.391 159.998V166.28L174.631 177.299L193.394 181.309L216.782 180.112Z" fill="#2E55DE"/>
<path d="M227.906 160.002V166.469L220.554 177.928V161.525L227.906 160.002Z" fill="#2E55DE"/>
<path d="M206.175 153.319V159.597L212.921 155.692V149.414L206.175 153.319Z" fill="#122A5B"/>
<path d="M211.551 159.161C211.551 159.056 211.503 158.954 211.481 158.853C211.324 158.186 211.052 157.551 210.677 156.978C210.023 155.988 209.179 155.138 208.195 154.477V160.755C209.135 161.389 209.949 162.192 210.598 163.123C211.078 162.433 211.403 161.645 211.551 160.816V159.161V159.161Z" fill="#122A5B"/>
<path d="M221.086 159.174H211.551V160.83H221.086V159.174Z" fill="#193B91"/>
<path d="M214.941 150.585L212.921 151.756V149.414L214.941 150.585Z" fill="#193B91"/>
<path d="M198.08 151.378V157.655L206.175 159.324V153.319L202.938 151.378H198.08Z" fill="#193B91"/>
<path d="M187.126 153.319V159.597L180.38 155.692V149.414L187.126 153.319Z" fill="#193B91"/>
<path d="M181.75 159.161C181.75 159.056 181.798 158.954 181.82 158.853C181.977 158.186 182.249 157.551 182.624 156.978C183.278 155.988 184.122 155.138 185.106 154.477V160.755C184.166 161.389 183.351 162.192 182.703 163.123C182.223 162.433 181.897 161.645 181.75 160.816V159.161Z" fill="#122A5B"/>
<path d="M181.751 159.174H172.216V160.83H181.751V159.174Z" fill="#193B91"/>
<path d="M178.359 150.585L180.38 151.756V149.414L178.359 150.585Z" fill="#122A5B"/>
<path d="M195.22 151.378V157.655L187.126 159.324V153.319L190.363 151.378H195.22Z" fill="#122A5B"/>
<path d="M206.407 159.998H186.894V166.275H206.407V159.998Z" fill="#2E55DE"/>
<path d="M196.648 165.65C202.036 165.65 206.403 163.121 206.403 160.002C206.403 156.883 202.036 154.354 196.648 154.354C191.261 154.354 186.894 156.883 186.894 160.002C186.894 163.121 191.261 165.65 196.648 165.65Z" fill="url(#paint1_linear_909_43430)"/>
<path d="M205.177 167.121C202.908 168.001 200.511 168.508 198.08 168.622V174.129H195.221V168.622C192.423 168.503 189.674 167.844 187.126 166.68L180.38 170.607L178.36 169.436L185.106 165.536C183.147 164.162 182.031 162.525 181.75 160.852H172.215V159.161H181.75C182.027 157.484 183.147 155.846 185.106 154.477L178.36 150.572L180.38 149.401L187.126 153.306C189.674 152.143 192.423 151.483 195.221 151.364V145.857H198.08V151.378C200.878 151.496 203.626 152.156 206.174 153.319L212.916 149.414L214.941 150.585L208.195 154.49C210.154 155.859 211.269 157.497 211.55 159.174H221.085V160.83H211.55C211.313 162.274 210.443 163.691 208.95 164.937L220.554 171.651C230.923 164.545 230.326 153.905 218.753 147.209C206.548 140.165 186.753 140.165 174.547 147.209C162.342 154.252 162.337 165.729 174.547 172.791C186.116 179.491 204.501 179.835 216.781 173.834L205.177 167.121Z" fill="url(#paint2_linear_909_43430)"/>
<path d="M198.08 145.857H195.221V152.135H198.08V145.857Z" fill="#122A5B"/>
<path d="M185.106 165.514V167.851L180.38 170.585L178.359 169.414L185.106 165.514Z" fill="#193B91"/>
<g style="mix-blend-mode:multiply" opacity="0.5">
<path d="M187.179 166.359L225.666 160.389C226.879 160.2 228.026 159.714 229.007 158.975C229.987 158.236 230.771 157.265 231.288 156.15L232.817 152.848L210.984 140.231C209.513 139.374 207.795 139.047 206.113 139.302L167.626 145.272C166.414 145.46 165.267 145.946 164.286 146.684C163.306 147.423 162.522 148.392 162.004 149.507L160.476 152.809L182.308 165.443C183.78 166.298 185.499 166.621 187.179 166.359V166.359Z" fill="#12262C"/>
</g>
<path d="M239.492 122.56V104.51L234.134 115.291L227.985 127.653V145.54C229.432 144.781 230.591 143.567 231.284 142.084L238.799 125.853C239.277 124.825 239.514 123.702 239.492 122.569V122.56Z" fill="#BCBCBB"/>
<path d="M159.509 116.59L153.8 112.575V130.475C153.8 130.612 153.8 130.748 153.822 130.885C153.868 132.142 154.231 133.366 154.878 134.444C155.525 135.522 156.434 136.418 157.52 137.048L182.304 151.391C183.049 151.823 183.863 152.121 184.711 152.271L184.882 152.298V134.455L159.509 116.59Z" fill="#BCBCBB"/>
<path d="M184.891 152.289C185.649 152.406 186.421 152.406 187.179 152.289L225.666 146.324C226.478 146.193 227.264 145.928 227.99 145.54V127.658L184.891 134.455V152.289Z" fill="#D6D6D4"/>
<path d="M235.768 98.3422L210.984 83.9993C209.511 83.1486 207.792 82.8272 206.113 83.088L167.63 89.0576C166.418 89.2464 165.271 89.7315 164.29 90.4702C163.31 91.2088 162.526 92.1782 162.008 93.2927L154.493 109.524C153.713 111.218 153.591 113.142 154.152 114.921C154.714 116.7 155.918 118.204 157.528 119.139L182.312 133.482C183.784 134.332 185.5 134.653 187.179 134.393L225.666 128.428C226.879 128.239 228.026 127.753 229.006 127.014C229.987 126.274 230.771 125.304 231.288 124.189L238.803 107.957C239.583 106.264 239.705 104.339 239.143 102.56C238.582 100.782 237.378 99.2774 235.768 98.3422V98.3422Z" fill="#F4F3EC"/>
<path d="M211.12 111.77V117.607L221.397 93.7682V87.9307L211.12 111.77Z" fill="#3A3F3D"/>
<path d="M180.204 93.8782V99.7157L186.533 113.944V108.107L180.204 93.8782Z" fill="#343635"/>
<path d="M211.12 111.769V117.607L186.533 113.944V108.107L211.12 111.769Z" fill="#131313"/>
<path d="M170.028 118.562V124.396L207.198 120.777V114.944L170.028 118.562Z" fill="#3A3F3D"/>
<path d="M221.397 87.9307L180.204 93.8783L186.533 108.107L211.12 111.77L221.397 87.9307Z" fill="#D6D6D4"/>
<path d="M181.843 109.454L176.283 97.0525L170.028 118.563L207.198 114.944L181.843 109.454Z" fill="#BCBCBB"/>
<path d="M180.204 93.8783L195.409 96.8499L221.397 87.9307L180.204 93.8783Z" fill="#828385"/>
<path d="M180.204 93.8782L186.533 108.107L195.409 96.8498L180.204 93.8782Z" fill="#A7A7A8"/>
<path d="M199.279 141.248L200.72 141.028C200.679 141.451 200.514 141.852 200.245 142.181C199.941 142.516 199.523 142.726 199.073 142.771C198.854 142.823 198.627 142.822 198.409 142.767C198.191 142.713 197.99 142.607 197.821 142.458C197.659 142.274 197.537 142.058 197.461 141.824C197.385 141.59 197.359 141.343 197.382 141.098C197.36 140.553 197.522 140.016 197.843 139.575C198.004 139.372 198.203 139.202 198.429 139.076C198.655 138.95 198.904 138.869 199.161 138.84C199.455 138.776 199.762 138.805 200.039 138.923C200.149 138.976 200.247 139.05 200.328 139.142C200.409 139.233 200.47 139.34 200.509 139.456L201.677 139.276C201.647 139.164 201.609 139.055 201.563 138.95L201.818 139.047L201.199 138.395C201.087 138.281 200.961 138.182 200.825 138.1C200.309 137.848 199.724 137.773 199.161 137.889C198.613 137.965 198.091 138.174 197.641 138.496C197.22 138.802 196.881 139.207 196.653 139.676C196.421 140.167 196.304 140.705 196.31 141.248C196.293 141.75 196.409 142.248 196.644 142.692C196.71 142.807 196.786 142.916 196.872 143.018V143.018L197.562 143.753L197.676 143.585C198.098 143.74 198.553 143.778 198.994 143.696C199.37 143.648 199.731 143.519 200.052 143.317C200.329 143.128 200.83 143.317 200.83 143.317L201.791 143.167V140.086L199.297 140.473L199.279 141.248Z" fill="#BCBCBB"/>
<path d="M199.525 144.281C199.052 144.371 198.562 144.322 198.116 144.14C197.718 143.967 197.389 143.667 197.18 143.286C196.945 142.842 196.83 142.345 196.846 141.842C196.839 141.299 196.958 140.761 197.193 140.271C197.419 139.802 197.757 139.397 198.177 139.091C198.628 138.763 199.151 138.55 199.701 138.47C200.264 138.353 200.851 138.429 201.366 138.686C201.583 138.808 201.771 138.976 201.919 139.177C202.067 139.378 202.17 139.608 202.222 139.852L201.054 140.033C201.016 139.916 200.955 139.808 200.874 139.716C200.793 139.624 200.694 139.549 200.584 139.496C200.306 139.38 200 139.35 199.706 139.412C199.448 139.442 199.2 139.522 198.973 139.648C198.747 139.774 198.548 139.944 198.388 140.147C198.064 140.589 197.9 141.128 197.922 141.675C197.9 141.921 197.93 142.168 198.009 142.402C198.089 142.636 198.216 142.85 198.384 143.031C198.552 143.179 198.754 143.285 198.972 143.34C199.189 143.394 199.417 143.395 199.635 143.343C200.084 143.298 200.5 143.088 200.804 142.754C201.073 142.425 201.238 142.023 201.278 141.6L199.837 141.825V141.059L202.332 140.671V143.753L201.37 143.903L201.282 143.181C201.106 143.469 200.869 143.715 200.588 143.903C200.266 144.105 199.903 144.235 199.525 144.281V144.281Z" fill="#12262C"/>
<path d="M204.154 143.608V138.03L207.879 137.453V138.272L205.195 138.712V140.231L207.633 139.857V140.654L205.195 141.028V142.639L207.879 142.225V143.044L204.154 143.608Z" fill="#12262C"/>
<path d="M210.602 142.613V137.854L208.938 138.109V137.29L213.33 136.612V137.431L211.656 137.691V142.432L210.602 142.613Z" fill="#12262C"/>
<path d="M214.497 141.992V136.427L215.538 136.264V138.584L218.099 138.188V135.868L219.144 135.71V141.288L218.099 141.45V139.016L215.538 139.417V141.847L214.497 141.992Z" fill="#12262C"/>
<path d="M213.944 135.842L214.498 136.427L215.539 136.264L214.985 135.679L213.944 135.842Z" fill="#BCBCBB"/>
<path d="M217.546 135.283L218.099 135.868L219.145 135.71L218.587 135.12L217.546 135.283Z" fill="#BCBCBB"/>
<path d="M217.545 137.603L218.099 138.188L215.538 138.585V137.915L217.545 137.603Z" fill="#BCBCBB"/>
<path d="M214.498 142.005L213.944 141.42V135.842L214.498 136.427V142.005Z" fill="#828385"/>
<path d="M218.099 141.45L217.546 140.865V139.104L218.099 139.02V141.45Z" fill="#828385"/>
<path d="M217.546 135.283V137.603L218.099 138.188V135.868L217.546 135.283Z" fill="#828385"/>
<path d="M213.316 136.612L212.758 136.022L208.384 136.7L208.937 137.29L213.316 136.612Z" fill="#BCBCBB"/>
<path d="M208.937 138.109L208.384 137.523V136.7L208.937 137.29V138.109Z" fill="#828385"/>
<path d="M210.602 142.612L210.044 142.023V137.937L210.602 137.854V142.612Z" fill="#828385"/>
<path d="M207.879 137.453L207.326 136.867L203.597 137.444L204.154 138.03L207.879 137.453Z" fill="#BCBCBB"/>
<path d="M207.633 139.844L207.08 139.254L205.195 139.549V140.218L207.633 139.844Z" fill="#BCBCBB"/>
<path d="M207.325 141.626L207.879 142.212L205.195 142.626V141.952L207.325 141.626Z" fill="#BCBCBB"/>
<path d="M204.154 143.608L203.597 143.022V137.444L204.154 138.03V143.608Z" fill="#828385"/>
<path d="M202.327 140.684L201.774 140.099L199.279 140.486L199.833 141.072L202.327 140.684Z" fill="#BCBCBB"/>
<path d="M199.279 141.248L199.833 141.838V141.072L199.279 140.486V141.248Z" fill="#828385"/>
<path d="M199.63 143.357C200.079 143.311 200.495 143.101 200.798 142.767C201.068 142.438 201.233 142.037 201.273 141.613L200.522 141.728C200.449 141.886 200.356 142.034 200.245 142.168C199.94 142.503 199.522 142.713 199.072 142.758C198.748 142.821 198.411 142.781 198.11 142.643C198.174 142.789 198.265 142.92 198.378 143.031C198.546 143.182 198.747 143.29 198.965 143.347C199.182 143.403 199.411 143.407 199.63 143.357Z" fill="#828385"/>
<path d="M195.41 96.8499L211.12 111.77L221.398 87.9307L195.41 96.8499Z" fill="#A7A7A8"/>
<path d="M170.028 118.563L181.843 109.454L176.283 97.0525L170.028 118.563Z" fill="#A7A7A8"/>
</g>
<defs>
<linearGradient id="paint0_linear_909_43430" x1="108.549" y1="166.857" x2="185.657" y2="273.966" gradientUnits="userSpaceOnUse">
<stop stop-color="#12262C" stop-opacity="0"/>
<stop offset="0.66" stop-color="#0F1F23" stop-opacity="0.62"/>
<stop offset="1" stop-color="#0D1B1E"/>
</linearGradient>
<linearGradient id="paint1_linear_909_43430" x1="196.648" y1="142.529" x2="196.648" y2="174.776" gradientUnits="userSpaceOnUse">
<stop stop-color="#CA36D4"/>
<stop offset="1" stop-color="#4CA4F5"/>
</linearGradient>
<linearGradient id="paint2_linear_909_43430" x1="166.062" y1="156.418" x2="224.418" y2="163.219" gradientUnits="userSpaceOnUse">
<stop stop-color="#CA36D4"/>
<stop offset="1" stop-color="#699FFF"/>
</linearGradient>
<clipPath id="clip0_909_43430">
<rect width="216" height="200" fill="white" transform="translate(48 83)"/>
</clipPath>
</defs>
</svg>
