<svg width="263" height="114" viewBox="0 0 263 114" fill="none" xmlns="http://www.w3.org/2000/svg">
<path d="M90.4434 44.1509H95.5754V66.1289H108.192V71.0368H90.4434V44.1509Z" fill="white"/>
<path d="M130.626 44.1509H135.758V71.0368H130.626V44.1509Z" fill="white"/>
<path d="M160.325 44.1509H168.879C170.646 44.1509 172.329 44.5207 173.925 45.2604C175.522 45.9717 176.933 46.939 178.159 48.1624C179.385 49.3857 180.355 50.8083 181.068 52.43C181.78 54.0517 182.136 55.7729 182.136 57.5937C182.136 59.4148 181.78 61.136 181.068 62.7576C180.355 64.3791 179.385 65.8017 178.159 67.0249C176.933 68.2486 175.522 69.23 173.925 69.9699C172.329 70.6812 170.646 71.0368 168.879 71.0368H160.325V44.1509ZM168.879 66.1289C169.934 66.1289 170.946 65.9015 171.915 65.4461C172.913 64.9907 173.783 64.3791 174.524 63.6108C175.294 62.8431 175.893 61.9465 176.32 60.9223C176.776 59.8696 177.004 58.7602 177.004 57.5937C177.004 56.4273 176.776 55.3319 176.32 54.3077C175.893 53.255 175.294 52.3446 174.524 51.5764C173.783 50.8083 172.913 50.1966 171.915 49.7414C170.946 49.2862 169.934 49.0586 168.879 49.0586H165.457V66.1289H168.879Z" fill="white"/>
<path d="M216.775 71.25C215.007 71.25 213.325 70.9086 211.728 70.2258C210.16 69.5145 208.777 68.5473 207.58 67.3241C206.41 66.0719 205.47 64.6208 204.757 62.9707C204.073 61.3207 203.73 59.5282 203.73 57.5938C203.73 55.6876 204.073 53.9094 204.757 52.2593C205.47 50.5807 206.41 49.1297 207.58 47.9064C208.777 46.6545 210.16 45.6872 211.728 45.0044C213.325 44.2932 215.007 43.9375 216.775 43.9375C218.542 43.9375 220.21 44.2932 221.778 45.0044C223.375 45.6872 224.758 46.6545 225.927 47.9064C227.124 49.1297 228.065 50.5807 228.749 52.2593C229.462 53.9094 229.819 55.6876 229.819 57.5938C229.819 59.5282 229.462 61.3207 228.749 62.9707C228.065 64.6208 227.124 66.0719 225.927 67.3241C224.758 68.5473 223.375 69.5145 221.778 70.2258C220.21 70.9086 218.542 71.25 216.775 71.25ZM216.775 66.3421C217.83 66.3421 218.842 66.1289 219.811 65.702C220.78 65.2757 221.622 64.6778 222.334 63.9095C223.047 63.1133 223.617 62.1888 224.045 61.1361C224.472 60.0548 224.687 58.8741 224.687 57.5938C224.687 56.3135 224.472 55.147 224.045 54.0944C223.617 53.0132 223.047 52.0886 222.334 51.3204C221.622 50.5238 220.78 49.9121 219.811 49.4854C218.842 49.0586 217.83 48.8452 216.775 48.8452C215.691 48.8452 214.665 49.0586 213.695 49.4854C212.755 49.9121 211.927 50.5238 211.215 51.3204C210.502 52.0886 209.932 53.0132 209.504 54.0944C209.076 55.147 208.863 56.3135 208.863 57.5938C208.863 58.8741 209.076 60.0548 209.504 61.1361C209.932 62.1888 210.502 63.1133 211.215 63.9095C211.927 64.6778 212.755 65.2757 213.695 65.702C214.665 66.1289 215.691 66.3421 216.775 66.3421Z" fill="white"/>
<path fill-rule="evenodd" clip-rule="evenodd" d="M49.9971 33.25L61.7778 51.6508L49.9965 58.5019L38.2168 51.6506L49.9971 33.25ZM41.823 50.7805L49.9971 38.0127L58.1713 50.7805L49.9966 55.5344L41.823 50.7805Z" fill="white"/>
<path d="M49.9801 62.5463L36.3145 54.5983L35.9413 55.1812C31.7323 61.7554 32.6723 70.3654 38.2013 75.882C44.7076 82.3728 55.2563 82.3728 61.7628 75.882C67.2917 70.3654 68.2313 61.7554 64.0227 55.1812L63.649 54.5981L49.9807 62.5469L49.9801 62.5463Z" fill="white"/>
</svg>
